<?xml version="1.0" encoding="UTF-8" standalone="no"?>
<!-- Created with Inkscape (http://www.inkscape.org/) -->

<svg
   width="100"
   height="100"
   viewBox="0 0 26.458333 26.458333"
   version="1.1"
   id="svg1"
   xml:space="preserve"
   inkscape:version="1.4.2 (f4327f4, 2025-05-13)"
   sodipodi:docname="superiormace.svg"
   xmlns:inkscape="http://www.inkscape.org/namespaces/inkscape"
   xmlns:sodipodi="http://sodipodi.sourceforge.net/DTD/sodipodi-0.dtd"
   xmlns="http://www.w3.org/2000/svg"
   xmlns:svg="http://www.w3.org/2000/svg"><sodipodi:namedview
     id="namedview1"
     pagecolor="#ffffff"
     bordercolor="#000000"
     borderopacity="0.25"
     inkscape:showpageshadow="2"
     inkscape:pageopacity="0.0"
     inkscape:pagecheckerboard="0"
     inkscape:deskcolor="#d1d1d1"
     inkscape:document-units="mm"
     inkscape:zoom="0.51981271"
     inkscape:cx="-1374.5335"
     inkscape:cy="-43.284821"
     inkscape:window-width="3440"
     inkscape:window-height="1369"
     inkscape:window-x="-8"
     inkscape:window-y="-8"
     inkscape:window-maximized="1"
     inkscape:current-layer="layer2" /><defs
     id="defs1" /><g
     inkscape:label="Layer 1"
     inkscape:groupmode="layer"
     id="layer1"><g
       inkscape:groupmode="layer"
       id="layer2"
       inkscape:label="Layer 2"><path
         style="fill:#216778;stroke-width:0.964999"
         d="M 15.460797,10.704852 8.9869858,15.381266 8.8279241,15.142673 15.333547,10.482166 Z"
         id="path3" /><path
         style="fill:#216778;stroke-width:0.964999"
         d="M 13.679306,8.4302699 7.1577763,13.170308 6.9509962,12.868091 12.820373,8.4143637 Z"
         id="path7" /><path
         style="fill:#216778;stroke-width:0.964999"
         d="M 6.6010604,1.876928 6.1715938,2.1791452 14.315553,11.929627 14.649582,11.675128 Z"
         id="path8" /><path
         style="fill:#216778;stroke-width:0.964999"
         d="M 5.9807196,11.802378 6.2034062,12.009158 12.852185,7.2691195 12.613592,6.93509 12.009158,7.3645566 11.913721,7.2054947 10.513978,8.2393958 Z"
         id="path9" /><path
         style="fill:#216778;stroke-width:0.964999"
         d="m 11.818284,6.0761567 -0.20678,-0.3181234 0.03181,0.063625 -6.680591,4.8195687 0.3022171,0.254499 z"
         id="path10" /><path
         style="fill:#216778;stroke-width:0.964999"
         d="M 10.895726,4.9150063 10.704852,4.6764138 3.9924484,9.5118892 4.2946658,9.8141066 Z"
         id="path11" /><path
         style="fill:#216778;stroke-width:0.964999"
         d="M 2.3859254,7.2532133 9.2255783,2.7517674 8.9392672,2.4654563 Z"
         id="path14" /><path
         style="fill:#216778;stroke-width:0.964999"
         d="M 8.1121463,1.4315553 7.9371787,1.224775 1.2406812,6.0920629 1.4474614,6.2511246 Z"
         id="path15" /></g><path
       style="fill:#554400;stroke-width:0.964999"
       d="m 21.499329,26.060134 2.058267,-1.467781 -0.236194,-0.33742 -0.573616,0.365539 L 13.297558,11.945533 5.0899742,1.6065231 4.5968829,1.5269923 2.6563304,2.9108291 2.6722371,3.2766709 11.372912,13.87018 l 6.648779,7.205495 3.6107,4.35829 -0.33403,0.254499 z"
       id="path1" /><path
       style="fill:#216778;stroke-width:0.964999"
       d="M 14.474614,9.4800771 8.0803342,14.267834 7.8417416,13.997429 13.6634,9.6709509 Z"
       id="path4" /><path
       style="fill:#216778;stroke-width:0.964999"
       d="M 10.895726,14.251928 10.641227,14.458708 2.6722366,4.7082262 2.9267351,4.5173521 Z"
       id="path5" /><path
       style="fill:#216778;stroke-width:0.964999"
       d="m 12.836279,9.5755141 -0.811215,0.7157779 -1.829209,1.972365 3.038078,-2.226864 z"
       id="path6" /><path
       style="fill:#216778;stroke-width:0.964999"
       d="M 10.00498,3.6902313 3.4993572,8.6211438 3.19714,8.3030204 8.7483933,3.6425129 8.9392672,3.9606362 Z"
       id="path12" /><path
       style="fill:#216778;stroke-width:0.964999"
       d="M 7.7463046,2.7835796 7.4918058,2.4336439 3.2925771,5.8057517 2.3382069,7.3327442 Z"
       id="path13" /></g></svg>
